<mxfile host="app.diagrams.net" modified="2024-01-09T07:20:44.460Z" agent="Mozilla/5.0 (Windows NT 10.0; Win64; x64) AppleWebKit/537.36 (KHTML, like Gecko) Chrome/120.0.0.0 Safari/537.36" version="22.1.17" etag="Y_L2fVS-r83HUpqc12jz" type="github">
  <diagram name="第 1 页" id="VQhvyltRvlcrVK7vR7Ea">
    <mxGraphModel>
      <root>
        <mxCell id="0" />
        <mxCell id="1" parent="0" />
      </root>
    </mxGraphModel>
  </diagram>
</mxfile>
